<?xml version="1.0" encoding="UTF-8" standalone="no"?>
<svg width="39px" height="35px" viewBox="0 0 39 35" version="1.1" xmlns="http://www.w3.org/2000/svg" xmlns:xlink="http://www.w3.org/1999/xlink" xmlns:sketch="http://www.bohemiancoding.com/sketch/ns">
    <!-- Generator: Sketch 3.3.3 (12072) - http://www.bohemiancoding.com/sketch -->
    <title>menu_cart</title>
    <desc>Created with Sketch.</desc>
    <defs></defs>
    <g id="Page-1" stroke="none" stroke-width="1" fill="none" fill-rule="evenodd" sketch:type="MSPage">
        <g id="Menu" sketch:type="MSArtboardGroup" transform="translate(-426.000000, -150.000000)" fill="#4A4A4A">
            <g id="Rectangle-18-+-Fill-280-+-WARENKORB" sketch:type="MSLayerGroup" transform="translate(380.000000, 130.000000)">
                <g id="Fill-280-+-WARENKORB" transform="translate(17.000000, 20.000000)" sketch:type="MSShapeGroup">
                    <g id="menu_cart" transform="translate(29.000000, 0.000000)">
                        <path d="M20.1312,11.1363636 L24.6048,6.68818182 L29.1712,11.1363636 L20.1312,11.1363636 Z M15.8,11.1363636 L15.8,7.95454545 L21.0688,7.95454545 L17.8688,11.1363636 L15.8,11.1363636 Z M5.9136,11.1363636 L2.4528,3.56522727 L5.0048,2.35772727 L8.9632,11.1363636 L5.9136,11.1363636 Z M38.2,1.59090909 L33.4,1.59090909 C33.0288,1.59090909 32.7056,1.84545455 32.6208,2.205 L30.6848,10.3838636 L25.16,5.00181818 C24.8464,4.69477273 24.344,4.69795455 24.0336,5.00818182 L22.6688,6.36363636 L15,6.36363636 C14.5584,6.36363636 14.2,6.72 14.2,7.15909091 L14.2,11.1363636 L10.7168,11.1363636 L6.1296,0.964090909 C6.04,0.768409091 5.8784,0.617272727 5.6752,0.544090909 C5.472,0.469318182 5.2496,0.480454545 5.056,0.571136364 L1.056,2.46431818 C0.6624,2.65045455 0.4912,3.11659091 0.672,3.51272727 L4.1568,11.1363636 L2.2,11.1363636 C1.9424,11.1363636 1.6992,11.2588636 1.5504,11.4672727 C1.4,11.6740909 1.36,11.9413636 1.44,12.1847727 L6.24,26.5029545 C6.3504,26.8259091 6.6544,27.0454545 7,27.0454545 L26.7424,27.0454545 L26.3648,28.6363636 L9.4,28.6363636 C7.6336,28.6363636 6.2,30.065 6.2,31.8181818 C6.2,33.5745455 7.6336,35 9.4,35 C11.1648,35 12.6,33.5745455 12.6,31.8181818 C12.6,31.2375 12.4304,30.6981818 12.1552,30.2272727 L24.2432,30.2272727 C23.968,30.6981818 23.8,31.2375 23.8,31.8181818 C23.8,33.5745455 25.2336,35 27,35 C28.7648,35 30.2,33.5745455 30.2,31.8181818 C30.2,30.4022727 29.2592,29.2138636 27.9696,28.8018182 L34.032,3.18181818 L38.2,3.18181818 C38.64,3.18181818 39,2.82545455 39,2.38636364 C39,1.94727273 38.64,1.59090909 38.2,1.59090909 L38.2,1.59090909 Z" id="Fill-280"></path>
                    </g>
                </g>
            </g>
        </g>
    </g>
</svg>