<?xml version="1.0" encoding="UTF-8" standalone="no"?>
<svg width="24px" height="24px" viewBox="0 0 24 24" version="1.1" xmlns="http://www.w3.org/2000/svg" xmlns:xlink="http://www.w3.org/1999/xlink" xmlns:sketch="http://www.bohemiancoding.com/sketch/ns">
    <!-- Generator: Sketch 3.3.3 (12072) - http://www.bohemiancoding.com/sketch -->
    <title>daniel</title>
    <desc>Created with Sketch.</desc>
    <defs></defs>
    <g id="Page-1" stroke="none" stroke-width="1" fill="none" fill-rule="evenodd" sketch:type="MSPage">
        <g id="daniel" sketch:type="MSLayerGroup" transform="translate(-1.000000, 0.000000)" fill="#000000">
            <path d="M24.772,20.233 L21.831,15.158 C20.521,17.195 18.533,18.754 16.183,19.504 L18.724,23.757 C18.815,23.908 18.979,24 19.153,24 C19.169,24 19.185,23.999 19.201,23.998 C19.393,23.98 19.558,23.852 19.623,23.671 L20.815,20.393 L24.255,20.976 C24.45,21.004 24.639,20.927 24.75,20.768 C24.86,20.609 24.869,20.4 24.772,20.233" id="Fill-371" sketch:type="MSShapeGroup"></path>
            <path d="M4.083,15.018 L1.067,20.233 C0.97,20.4 0.979,20.609 1.089,20.768 C1.2,20.927 1.389,21.006 1.584,20.976 L5.023,20.393 L6.216,23.671 C6.281,23.853 6.446,23.98 6.639,23.998 C6.654,24 6.67,24 6.686,24 C6.86,24 7.024,23.908 7.115,23.756 L9.678,19.453 C7.335,18.669 5.365,17.081 4.083,15.018" id="Fill-372" sketch:type="MSShapeGroup"></path>
            <path d="M13,0 C7.762,0 3.5,4.262 3.5,9.5 C3.5,14.738 7.762,19 13,19 C18.238,19 22.5,14.738 22.5,9.5 C22.5,4.262 18.238,0 13,0 L13,0 Z M18.794,8.415 L16.997,12.542 C16.606,13.454 15.72,14 14.629,14 L12.625,14 C11.659,14 11.231,13.829 10.776,13.648 C10.209,13.421 9.566,13.164 7.338,13.164 C7.062,13.164 6.838,12.941 6.838,12.664 L6.838,8.5 C6.838,8.224 7.062,8 7.338,8 L8.473,8 C9.984,8 10.904,6.001 11.878,3.885 C12.01,3.599 12.379,2.936 12.963,2.936 C13.362,2.936 13.838,3.207 13.838,4.503 L13.838,7 L17.557,7 C18.286,7 18.836,7.523 18.836,8.215 C18.836,8.284 18.822,8.352 18.794,8.415 L18.794,8.415 Z" id="Fill-373" sketch:type="MSShapeGroup"></path>
        </g>
    </g>
</svg>