<?xml version="1.0" encoding="UTF-8" standalone="no"?>
<svg width="23px" height="20px" viewBox="0 0 23 20" version="1.1" xmlns="http://www.w3.org/2000/svg" xmlns:xlink="http://www.w3.org/1999/xlink" xmlns:sketch="http://www.bohemiancoding.com/sketch/ns">
    <!-- Generator: Sketch 3.3.3 (12072) - http://www.bohemiancoding.com/sketch -->
    <title>github</title>
    <desc>Created with Sketch.</desc>
    <defs></defs>
    <g id="Page-1" stroke="none" stroke-width="1" fill="none" fill-rule="evenodd" sketch:type="MSPage">
        <g id="github" sketch:type="MSLayerGroup" fill="#000000">
            <path d="M15.459,17.5 L7.459,17.5 C5.526,17.5 3.959,15.933 3.959,14 C3.959,8.093 8.084,10.469 11.459,10.469 C14.833,10.469 18.959,8.031 18.959,14 C18.959,15.933 17.393,17.5 15.459,17.5 M20.988,7.214 L21.02,7.237 C21.02,7.237 23.667,2.666 20.417,0 C18.417,0 15.358,3.304 15.358,3.304 L15.381,3.319 C12.891,2.586 10.096,2.581 7.6,3.303 C7.583,3.285 4.537,0 2.542,0 C-0.632,2.602 1.812,7.012 1.928,7.217 C0.91,8.743 0.355,10.65 0.532,12.96 C0.773,16.086 3.38,19.5 6.515,19.5 L16.402,19.5 C19.538,19.5 22.144,16.086 22.385,12.96 C22.563,10.648 22.008,8.74 20.988,7.214" id="Fill-315" sketch:type="MSShapeGroup"></path>
            <path d="M15.9795,14 C15.9795,14.829 15.5325,15.5 14.9795,15.5 C14.4275,15.5 13.9795,14.829 13.9795,14 C13.9795,13.171 14.4275,12.5 14.9795,12.5 C15.5325,12.5 15.9795,13.171 15.9795,14" id="Fill-316" sketch:type="MSShapeGroup"></path>
            <path d="M8.9795,14 C8.9795,14.829 8.5325,15.5 7.9795,15.5 C7.4275,15.5 6.9795,14.829 6.9795,14 C6.9795,13.171 7.4275,12.5 7.9795,12.5 C8.5325,12.5 8.9795,13.171 8.9795,14" id="Fill-317" sketch:type="MSShapeGroup"></path>
        </g>
    </g>
</svg>