<?xml version="1.0" encoding="UTF-8" standalone="no"?>
<svg width="21px" height="21px" viewBox="0 0 21 21" version="1.1" xmlns="http://www.w3.org/2000/svg" xmlns:xlink="http://www.w3.org/1999/xlink" xmlns:sketch="http://www.bohemiancoding.com/sketch/ns">
    <!-- Generator: Sketch 3.3.3 (12072) - http://www.bohemiancoding.com/sketch -->
    <title>paypal</title>
    <desc>Created with Sketch.</desc>
    <defs></defs>
    <g id="Page-1" stroke="none" stroke-width="1" fill="none" fill-rule="evenodd" sketch:type="MSPage">
        <g id="paypal" sketch:type="MSLayerGroup" fill="#000000">
            <path d="M11.1108,4.8369 L9.5148,4.8369 L8.9358,7.3159 L9.9648,7.3159 C10.2608,7.3159 10.5898,7.2119 10.8898,7.0229 C11.0028,6.9509 11.1158,6.8669 11.2188,6.7709 C11.5008,6.5049 11.7008,6.1749 11.7808,5.8419 C11.8918,5.4439 11.8188,5.1419 11.5888,4.9779 C11.4618,4.8849 11.2968,4.8369 11.1108,4.8369" id="Fill-278" sketch:type="MSShapeGroup"></path>
            <path d="M18.4473,4.1689 C18.5103,4.7879 18.4863,5.4889 18.3093,6.2919 C17.4913,10.0049 14.3423,12.4999 10.4733,12.4999 L7.7693,12.4999 L6.4643,17.7339 C6.3533,18.1789 5.9523,18.4909 5.4933,18.4909 L4.1003,18.4909 L3.6313,20.4999 L8.5093,20.4999 L10.0043,14.5089 L13.4893,14.5089 C16.8663,14.5089 19.6163,12.4099 20.3483,9.0849 C20.8943,6.6119 19.8963,4.9959 18.4473,4.1689" id="Fill-279" sketch:type="MSShapeGroup"></path>
            <path d="M12.7534,6.0762 C12.6224,6.6192 12.3134,7.1142 11.9024,7.5002 C11.7544,7.6392 11.5924,7.7612 11.4224,7.8692 C10.9794,8.1482 10.4724,8.3162 9.9644,8.3162 L7.6754,8.3162 L8.6454,4.1652 L8.7214,3.8372 L11.1104,3.8372 C11.5234,3.8372 11.8864,3.9582 12.1724,4.1652 C12.7164,4.5552 12.9814,5.2632 12.7534,6.0762 M12.9024,0.5002 L4.5894,0.5002 L0.6144,17.4912 L5.4934,17.4912 L6.9874,11.5002 L10.4734,11.5002 C13.8504,11.5002 16.6004,9.4012 17.3324,6.0762 C18.1674,2.2892 15.3934,0.5002 12.9024,0.5002" id="Fill-280" sketch:type="MSShapeGroup"></path>
        </g>
    </g>
</svg>